<svg xmlns="http://www.w3.org/2000/svg" version="1.1" xmlns:xlink="http://www.w3.org/1999/xlink" width="512" height="512" x="0" y="0" viewBox="0 0 512 512" style="enable-background:new 0 0 512 512" xml:space="preserve" class=""><g><g data-name="Layer 14"><path fill="#c8cded" d="M48 208h416v256H48z" opacity="1" data-original="#c8cded"></path><path fill="#e2e7f6" d="M80 424a16 16 0 0 0 16 16h368V208H80z" opacity="1" data-original="#e2e7f6"></path><path fill="#674025" d="M272 464V352h128v112M112 464V352h128v112" opacity="1" data-original="#674025"></path><path fill="#754c30" d="M112 352h128v88H112zM272 352h128v88H272z" opacity="1" data-original="#754c30"></path><path fill="#474747" d="M496 208H16l16-80h448z" opacity="1" data-original="#474747"></path><path fill="#686868" d="M480 128H60.8l-8.972 44.862A16 16 0 0 0 67.517 192H492.8z" opacity="1" data-original="#686868"></path><path fill="#2862be" d="M488 168H24l8-40h448z" opacity="1" data-original="#2862be"></path><path fill="#3279ea" d="M488 168c-3.9-19.487-8-40-8-40H60.8l-8 40z" opacity="1" data-original="#3279ea" class=""></path><path fill="#474747" d="M16 464h480v32H16z" opacity="1" data-original="#474747"></path><path fill="#686868" d="M64 480h432v-16H48a16 16 0 0 0 16 16z" opacity="1" data-original="#686868"></path><path fill="#f6b940" d="M192 352v48l-16-16-16 16v-48M352 352v48l-16-16-16 16v-48" opacity="1" data-original="#f6b940"></path><path fill="#c18e59" d="M192 256h128v96H192z" opacity="1" data-original="#c18e59"></path><path fill="#f4a93c" d="M272 256v48l-16-16-16 16v-48" opacity="1" data-original="#f4a93c"></path><path fill="#b52f28" d="M328 88a81.715 81.715 0 0 1-12.978 44.188L256 224l-59.022-91.812A81.715 81.715 0 0 1 184 88a72 72 0 0 1 72-72 72 72 0 0 1 72 72z" opacity="1" data-original="#b52f28" class=""></path><path fill="#d23f34" d="M315.022 132.188A81.715 81.715 0 0 0 328 88a71.958 71.958 0 0 0-60-70.92A71.958 71.958 0 0 0 208 88a81.715 81.715 0 0 0 12.978 44.188L268 205.333z" opacity="1" data-original="#d23f34" class=""></path><circle cx="256" cy="88" r="40" fill="#ffffff" opacity="1" data-original="#ffffff"></circle><path d="M496 456h-24V216h24a8 8 0 0 0 7.844-9.57l-16-80A8 8 0 0 0 480 120H330.078A89.52 89.52 0 0 0 336 88a80 80 0 0 0-160 0 89.52 89.52 0 0 0 5.922 32H32a8 8 0 0 0-7.844 6.43l-16 80A8 8 0 0 0 16 216h24v240H16a8 8 0 0 0-8 8v32a8 8 0 0 0 8 8h480a8 8 0 0 0 8-8v-32a8 8 0 0 0-8-8zM280.936 200l15.428-24h185.079l4.8 24zm192.509-64 4.8 24H306.65l15.1-23.488c.107-.168.2-.344.3-.512zM256 24a64.073 64.073 0 0 1 64 64 73.616 73.616 0 0 1-11.7 39.863L256 209.207l-52.3-81.344A73.616 73.616 0 0 1 192 88a64.073 64.073 0 0 1 64-64zm-66.054 112c.107.168.2.344.3.512L205.35 160H33.756l4.8-24zM30.557 176h185.079l15.428 24H25.758zM56 216h185.351l7.922 12.324a7.993 7.993 0 0 0 13.454 0L270.649 216H456v240h-48V352a8 8 0 0 0-8-8h-72v-88a8 8 0 0 0-8-8H192a8 8 0 0 0-8 8v88h-72a8 8 0 0 0-8 8v104H56zm192 48h16v20.688l-2.344-2.344a8 8 0 0 0-11.312 0L248 284.688zm-11.062 47.391a7.983 7.983 0 0 0 8.718-1.735L256 299.312l10.344 10.344A8 8 0 0 0 280 304v-40h32v80H200v-80h32v40a8 8 0 0 0 4.938 7.391zM328 360h16v20.688l-2.344-2.344a8 8 0 0 0-11.312 0L328 380.688zm-160 0h16v20.688l-2.344-2.344a8 8 0 0 0-11.312 0L168 380.688zm-11.062 47.391a8 8 0 0 0 8.718-1.735L176 395.312l10.344 10.344A8 8 0 0 0 200 400v-40h32v96H120v-96h32v40a8 8 0 0 0 4.938 7.391zM248 360h16v96h-16zm32 0h32v40a8 8 0 0 0 13.656 5.656L336 395.312l10.344 10.344A8 8 0 0 0 360 400v-40h32v96H280zm208 128H24v-16h464z" fill="#000000" opacity="1" data-original="#000000" class=""></path><path d="M256 136a48 48 0 1 0-48-48 48.052 48.052 0 0 0 48 48zm0-80a32 32 0 1 1-32 32 32.034 32.034 0 0 1 32-32z" fill="#000000" opacity="1" data-original="#000000" class=""></path></g></g></svg>